<?xml version="1.0" standalone="no"?>
<!DOCTYPE svg PUBLIC "-//W3C//DTD SVG 1.1//EN" "http://www.w3.org/Graphics/SVG/1.1/DTD/svg11.dtd" >
<svg xmlns="http://www.w3.org/2000/svg">
<metadata></metadata>
<defs>
<font id="gillsanscregular" horiz-adv-x="1105" >
<font-face units-per-em="2048" ascent="1575" descent="-473" />
<missing-glyph horiz-adv-x="614" />
<glyph horiz-adv-x="2048" />
<glyph horiz-adv-x="2048" />
<glyph unicode="&#xd;" horiz-adv-x="2048" />
<glyph unicode=" "  horiz-adv-x="614" />
<glyph unicode="&#x09;" horiz-adv-x="614" />
<glyph unicode="&#xa0;" horiz-adv-x="614" />
<glyph unicode="!" horiz-adv-x="599" d="M168 112q0 55 39 94t94 39t93.5 -38.5t38.5 -94t-38.5 -93.5t-93.5 -38q-36 0 -66.5 17.5t-48.5 47.5t-18 66zM175 1201q0 165 30 246t93 81q124 0 124 -327q0 -147 -13 -237l-55 -380q-10 -75 -22.5 -107t-33.5 -32t-33 31.5t-22 107.5l-55 380q-13 90 -13 237z" />
<glyph unicode="&#x22;" horiz-adv-x="781" d="M106 1325v258h195v-258l-52 -303h-92zM482 1325v258h195v-258l-51 -303h-92z" />
<glyph unicode="#" horiz-adv-x="1291" d="M2 252v153h230l80 376h-310v152h340l91 432h160l-91 -432h429l91 432h160l-91 -432h201v-152h-233l-79 -376h312v-153h-343l-90 -431h-160l90 431h-428l-91 -431h-160l91 431h-199zM391 405h430l80 376h-430z" />
<glyph unicode="$" horiz-adv-x="1198" d="M112 135v268q111 -99 195 -145.5t221 -78.5v478q-103 27 -183.5 71t-130 96t-75 108t-25.5 112q0 161 110.5 268.5t303.5 135.5v80h182v-80q77 -6 174 -43t156 -86v-240q-57 57 -150 105.5t-180 69.5v-438q124 -33 214.5 -96t138 -147.5t47.5 -183.5q0 -53 -15 -106 t-47.5 -104t-79 -92t-113.5 -69.5t-145 -36.5v-242h-182v242q-101 5 -197.5 44t-218.5 110zM332 1072q0 -65 47 -113.5t149 -82.5v378q-86 -11 -141 -62.5t-55 -119.5zM710 181q187 45 187 191q0 69 -43 118t-144 90v-399z" />
<glyph unicode="%" horiz-adv-x="1503" d="M55 1188q0 91 45.5 169t124 123.5t169.5 45.5t168.5 -45.5t123.5 -123.5t46 -169t-46 -169.5t-123.5 -124t-168.5 -45.5t-169 45t-124 123.5t-46 170.5zM173 -22l992 1550h167l-994 -1550h-165zM219 1188q0 -73 52 -124t123 -51q48 0 88 23.5t63 63.5t23 88 q0 72 -50.5 123.5t-123.5 51.5q-71 0 -123 -52t-52 -123zM772 316q0 92 45.5 170t123.5 123t169 45t168.5 -45t123.5 -123t46 -169.5t-46 -169.5t-123.5 -123.5t-168.5 -45.5t-169 45t-123.5 123t-45.5 170zM935 316q0 -72 52 -123.5t123 -51.5q73 0 124 51.5t51 123.5 q0 47 -23 87.5t-63.5 64t-88.5 23.5q-71 0 -123 -51.5t-52 -123.5z" />
<glyph unicode="&#x26;" horiz-adv-x="1382" d="M62 338q0 129 93 237.5t263 207.5q-74 78 -122.5 169t-48.5 181q0 158 106 252.5t282 94.5q158 0 260.5 -94t102.5 -234q0 -109 -65.5 -204.5t-211.5 -197.5l212 -243q44 44 90 113.5t72 129.5h216q-32 -92 -96.5 -196.5t-148.5 -199.5l306 -354h-279l-173 205 q-134 -121 -250.5 -172.5t-226.5 -51.5q-102 0 -189.5 47t-139.5 129.5t-52 180.5zM279 338q5 -65 59 -112t126 -47q146 0 323 177l-245 283q-69 -43 -113 -75.5t-80.5 -69.5t-53 -75t-16.5 -81zM460 1152q0 -43 22.5 -93.5t52 -90t64.5 -73.5q115 72 156 127.5t41 119.5 q0 32 -13 61t-35.5 49t-54.5 32t-69 12q-34 0 -64.5 -11t-52.5 -30t-34.5 -45.5t-12.5 -57.5z" />
<glyph unicode="'" horiz-adv-x="415" d="M110 1325v258h196v-258l-51 -303h-93z" />
<glyph unicode="(" horiz-adv-x="713" d="M141 513q0 278 115.5 551.5t313.5 470.5h118q-319 -423 -319 -1022t319 -1022h-118q-198 197 -313.5 470.5t-115.5 551.5z" />
<glyph unicode=")" horiz-adv-x="713" d="M27 -509q318 422 318 1022t-318 1022h117q198 -197 313 -470.5t115 -551.5t-115 -551.5t-313 -470.5h-117z" />
<glyph unicode="*" horiz-adv-x="922" d="M22 908q1 19 14.5 36t31.5 28.5t40 18.5l281 98q-8 22 2 46l-283 97q-45 16 -71 51.5t-1 77.5q12 21 31 30t38.5 5.5t39 -13.5t36.5 -25l222 -193q25 21 44 25l-56 287q-5 20 -3 42.5t9 42t24.5 32t42.5 12.5q34 0 53 -20.5t21 -49t-2 -59.5l-56 -287q27 -7 44 -27 l221 192q22 20 47.5 30.5t53.5 4.5t45 -35q24 -42 -1 -75t-74 -50l-276 -95q4 -13 0 -51l276 -96q21 -7 38.5 -18.5t30.5 -28.5t14.5 -37t-10.5 -43q-13 -22 -31.5 -30.5t-38.5 -5t-39 13t-37 24.5l-221 192q-24 -17 -45 -23l57 -289q3 -28 1 -56t-22 -49.5t-53 -22.5 q-34 1 -52.5 21t-20.5 48t2 59l56 289q-27 12 -42 27l-224 -194q-15 -14 -34.5 -23.5t-39.5 -12.5t-39.5 6t-32.5 30q-12 24 -11 43z" />
<glyph unicode="+" horiz-adv-x="1291" d="M124 690v182h431v430h182v-430h430v-182h-430v-431h-182v431h-431z" />
<glyph unicode="," horiz-adv-x="483" d="M102 146q0 55 36.5 90.5t93.5 35.5q72 0 114.5 -58.5t42.5 -156.5q0 -65 -27 -127.5t-87.5 -115t-143.5 -75.5v42q52 35 73.5 106t6.5 135q-49 1 -79 35t-30 89z" />
<glyph unicode="-" horiz-adv-x="713" d="M89 384v207h537v-207h-537z" />
<glyph unicode="." horiz-adv-x="483" d="M108 112q0 55 39 94t94 39t94 -39t39 -94t-39 -93t-94 -38t-94 38t-39 93z" />
<glyph unicode="/" horiz-adv-x="621" d="M17 -19l434 1547h155l-433 -1547h-156z" />
<glyph unicode="0" d="M66 754q0 230 60.5 406t171.5 272t255 96t255 -96t171.5 -272t60.5 -406t-60.5 -406t-171.5 -271.5t-255 -95.5t-255 95.5t-171.5 271.5t-60.5 406zM283 754q0 -266 72 -417t198 -151t198 151t72 417q0 176 -32.5 304.5t-93 196.5t-144.5 68q-126 0 -198 -151.5 t-72 -417.5z" />
<glyph unicode="1" d="M129 1108l515 420h82v-1528h-226v1157l-287 -237z" />
<glyph unicode="2" d="M76 0v15q95 115 139.5 170t130 163t147 196t106.5 166q59 100 82.5 167t23.5 155q0 125 -73 205t-185 80q-57 0 -109.5 -18.5t-112.5 -65t-119 -121.5v273q180 143 356 143q135 0 239.5 -59t162.5 -166.5t58 -245.5q0 -92 -24.5 -178.5t-85 -190.5t-143 -213.5 t-215.5 -269.5h576v-205h-954z" />
<glyph unicode="3" d="M141 66v235q171 -115 336 -115q111 0 177.5 65.5t66.5 175.5q0 116 -84 188t-238 64v199q146 0 222 57.5t76 161.5t-71 165t-191 61q-61 0 -119 -15t-137 -50v206q131 64 290 64q202 0 323.5 -107t121.5 -286q0 -126 -44.5 -204t-148.5 -135q72 -22 122.5 -79t72 -127.5 t21.5 -151.5q0 -133 -60 -237.5t-168.5 -162t-246.5 -57.5q-153 0 -321 85z" />
<glyph unicode="4" d="M25 496v99l762 933h93v-838h162v-194h-162v-496h-217v496h-638zM314 690h349v429h-4z" />
<glyph unicode="5" d="M110 73v223q162 -110 331 -110q83 0 155 37t114 99.5t42 135.5q0 98 -63.5 172t-181 103t-283.5 -9v785h669v-195h-473v-379q125 7 229 -26.5t173.5 -98t108 -154t38.5 -194.5q0 -137 -63.5 -247.5t-176.5 -172t-254 -61.5q-97 0 -181.5 21.5t-183.5 70.5z" />
<glyph unicode="6" d="M97 515q0 287 157 553t447 460l131 -165q-162 -94 -289.5 -245.5t-173.5 -307.5q117 62 237 62q118 0 215 -58t152 -159t55 -224q0 -90 -35.5 -173.5t-95.5 -144t-142 -96.5t-171 -36q-143 0 -254 66.5t-172 188.5t-61 279zM315.5 419.5q13.5 -74.5 51 -126.5t91 -79.5 t112.5 -27.5q108 0 175 68t67 179q0 49 -19 92t-52 74t-79.5 48.5t-99.5 17.5q-48 0 -83.5 -7t-71 -23.5t-84.5 -48.5q-21 -92 -7.5 -166.5z" />
<glyph unicode="7" d="M108 1302v207h976l-683 -1528l-193 83l553 1238h-653z" />
<glyph unicode="8" d="M71 409q0 236 214 361q-85 62 -132 146t-47 179q0 122 60 221.5t166 155.5t236 56q126 0 228 -57t159.5 -157t57.5 -223q0 -89 -47.5 -174.5t-140.5 -146.5q102 -54 156 -150t54 -213q0 -119 -63 -216.5t-172.5 -153.5t-242.5 -56q-135 0 -246.5 56.5t-175.5 155 t-64 216.5zM287 424q0 -104 75 -171t191 -67q125 0 195.5 69t70.5 169q0 104 -74 171.5t-188 67.5q-122 0 -196 -66t-74 -173zM323 1099q0 -93 70 -161.5t166 -68.5q98 0 167.5 67t69.5 159q0 98 -65.5 163t-166.5 65q-108 0 -174.5 -61.5t-66.5 -162.5z" />
<glyph unicode="9" d="M80 1081q0 84 33 164.5t91.5 143t146.5 101t189 38.5q137 0 247 -71t171.5 -197t61.5 -283q0 -180 -77.5 -370t-215.5 -354.5t-313 -271.5l-133 158q188 123 308 272t152 294q-49 -30 -111.5 -46.5t-122.5 -16.5q-118 0 -216 58t-154.5 159t-56.5 222zM296 1084 q0 -98 75.5 -167.5t181.5 -69.5q51 0 112 20.5t120 61.5q11 53 11 122q0 110 -74 191t-178 81q-53 0 -99 -18t-79 -49t-51.5 -75.5t-18.5 -96.5z" />
<glyph unicode=":" horiz-adv-x="483" d="M108 112q0 55 39 94t94 39t94 -39t39 -94t-39 -93t-94 -38t-94 38t-39 93zM108 880q0 55 39 94t94 39q27 0 51.5 -10.5t42.5 -28.5t28.5 -42.5t10.5 -51.5q0 -55 -39 -94t-94 -39t-94 39t-39 94z" />
<glyph unicode=";" horiz-adv-x="483" d="M106 154q0 44 17.5 74.5t47 45.5t68.5 15q66 0 107 -59t41 -146q0 -124 -65 -213.5t-187 -125.5v42q33 28 53 57.5t27 57.5t9 59.5t0 63.5q-54 6 -86 41t-32 88zM108 880q0 55 39 94t94 39q27 0 51.5 -10.5t42.5 -28.5t28.5 -42.5t10.5 -51.5q0 -55 -39 -94t-94 -39 t-94 39t-39 94z" />
<glyph unicode="&#x3c;" horiz-adv-x="1291" d="M122 692v182l1048 447v-193l-832 -345l832 -345v-193z" />
<glyph unicode="=" horiz-adv-x="1291" d="M124 449v182h1043v-182h-1043zM124 931v181h1043v-181h-1043z" />
<glyph unicode="&#x3e;" horiz-adv-x="1291" d="M122 245v193l832 345l-832 345v193l1048 -447v-182z" />
<glyph unicode="?" horiz-adv-x="735" d="M177 591q0 64 25.5 130.5t62 122t72.5 109.5t61.5 113.5t25.5 115.5q0 66 -39.5 106.5t-105.5 40.5q-20 0 -36.5 -1.5t-37.5 -6t-24 -4.5l104 211q63 1 117 -13t92 -38.5t67 -55.5t46.5 -68t26 -73t8.5 -73q0 -67 -20.5 -137t-52 -131t-69.5 -121.5t-74.5 -117 t-65.5 -109t-44 -105.5t-8 -99q-70 35 -100.5 82t-30.5 122zM208 112.5q0 55.5 38.5 94t93.5 38.5t94 -39t39 -94q0 -36 -18 -66t-48.5 -47.5t-66.5 -17.5q-55 0 -93.5 38t-38.5 93.5z" />
<glyph unicode="@" horiz-adv-x="2233" d="M120 507q0 102 18 207.5t58 215t99 208.5t146.5 186t194 151t248.5 100.5t304 36.5q199 0 371.5 -63t294 -174t191.5 -267.5t70 -337.5q0 -97 -25.5 -194t-69 -182t-105.5 -159t-132.5 -126.5t-151.5 -82.5t-162 -30q-215 0 -215 181q-73 -84 -159.5 -131.5t-167.5 -47.5 q-113 0 -203.5 63t-141.5 175t-51 251q0 101 31 203t86 187t125 151.5t153.5 104t166.5 37.5q66 0 126 -23t110 -67.5t89 -108.5l38 168h194l-181 -833q-14 -62 4 -97.5t66 -35.5q20 0 51 12t70 37t79 60t78.5 86t68.5 109.5t48.5 135.5t18.5 159q0 97 -26.5 186.5 t-75 164.5t-118.5 137.5t-155 105.5t-187 66.5t-212 23.5q-191 0 -358 -71t-285.5 -194t-186.5 -296t-68 -371q0 -393 245 -611.5t688 -218.5q265 0 459 89t298 236h199q-294 -483 -958 -483q-253 0 -457 67t-344 191.5t-215.5 306t-75.5 406.5zM732 471q0 -93 30 -164.5 t84.5 -110.5t124.5 -39t140.5 46.5t124 121.5t86.5 174.5t33 199.5q0 144 -67.5 229t-181.5 85q-70 0 -138.5 -46t-120 -121t-83.5 -174.5t-32 -200.5z" />
<glyph unicode="A" horiz-adv-x="1475" d="M0 0l648 1517h152l675 -1517h-221l-201 445h-642l-190 -445h-221zM496 639h468l-243 547z" />
<glyph unicode="B" horiz-adv-x="1245" d="M166 0v1509h438q79 0 147 -15.5t118 -42.5t88.5 -63.5t62.5 -80t36 -89.5t12 -95q0 -117 -56 -196t-174 -127v-4q169 -32 266 -136.5t97 -256.5q0 -58 -17 -113.5t-56.5 -108.5t-98 -93t-147.5 -64t-198 -24h-518zM382 194h272q54 0 98.5 7.5t77.5 20.5t58.5 31t42 39 t27.5 45t15 47.5t4 48.5q0 107 -84 170.5t-249 63.5h-262v-473zM382 863h144q161 0 240 59.5t79 181.5q0 44 -13.5 80.5t-43 66.5t-82 46.5t-124.5 16.5h-200v-451z" />
<glyph unicode="C" horiz-adv-x="1564" d="M106 732q0 170 62 318t171 253t263 165t331 60q116 0 240 -29.5t277 -94.5v-232q-140 81 -264.5 119t-254.5 38q-127 0 -239 -43.5t-191.5 -120t-125.5 -184t-46 -229.5q0 -101 28.5 -189.5t82.5 -158.5t128 -120.5t169 -77.5t203 -27q127 0 262.5 44t264.5 127v-238 q-122 -64 -251 -97.5t-296 -33.5q-118 0 -223 25t-186 68.5t-148.5 102.5t-114.5 126.5t-79.5 141.5t-47.5 146t-15 141z" />
<glyph unicode="D" horiz-adv-x="1658" d="M168 0v1509h586q116 0 219.5 -23.5t183.5 -64t146.5 -97.5t113 -123.5t78.5 -141t47 -151.5t15 -154q0 -116 -35 -227t-104 -206t-164 -167t-224 -113t-274 -41h-588zM384 194h346q102 0 188 21.5t147 57t109 84t77.5 99t48.5 106t26.5 102.5t7.5 90q0 92 -23 174.5 t-72 153.5t-120.5 122.5t-173.5 80.5t-226 29h-335v-1120z" />
<glyph unicode="E" d="M166 0v1509h856v-195h-640v-455h618v-196h-618v-469h660v-194h-876z" />
<glyph unicode="F" horiz-adv-x="1036" d="M168 0v1509h805v-195h-589v-419h589v-194h-589v-701h-216z" />
<glyph unicode="G" horiz-adv-x="1636" d="M110 745q0 164 62.5 309.5t170 249.5t257.5 164t320 60q133 0 247 -27t291 -101v-218q-270 147 -542 147q-121 0 -229 -44.5t-185.5 -121t-122.5 -184t-45 -227.5q0 -125 45 -231.5t125 -181.5t193.5 -117.5t246.5 -42.5q144 0 328 60v310h-290v194h506v-639 q-150 -67 -283 -95t-291 -28q-171 0 -320.5 57.5t-255.5 158t-167 243t-61 305.5z" />
<glyph unicode="H" horiz-adv-x="1611" d="M166 0v1509h216v-658h846v658h216v-1509h-216v657h-846v-657h-216z" />
<glyph unicode="I" horiz-adv-x="552" d="M168 0v1509h216v-1509h-216z" />
<glyph unicode="J" horiz-adv-x="552" d="M-137 -303h55q49 0 86.5 7.5t64 20t44.5 36.5t29 49t17 65t7.5 78t1.5 93v1463h216v-1526q0 -87 -13.5 -159.5t-45 -135t-79 -105.5t-118 -67.5t-159.5 -24.5q-23 0 -66 5z" />
<glyph unicode="K" horiz-adv-x="1450" d="M166 0v1509h216v-690l635 690h270l-656 -715l817 -794h-298l-768 745v-745h-216z" />
<glyph unicode="L" horiz-adv-x="1083" d="M164 0v1509h216v-1315h682v-194h-898z" />
<glyph unicode="M" horiz-adv-x="1726" d="M162 0v1509h203l500 -620l502 620h201v-1509h-217v1174h-4l-465 -583h-35l-465 583h-4v-1174h-216z" />
<glyph unicode="N" horiz-adv-x="1726" d="M164 0v1509h172l1022 -1169v1169h204v-1509h-186l-1009 1161v-1161h-203z" />
<glyph unicode="O" horiz-adv-x="1819" d="M99 754q0 89 19 174.5t56.5 162t89.5 143.5t121 121t149.5 92.5t176 59.5t198.5 21q147 0 275.5 -40t225.5 -111.5t167.5 -168t106.5 -213t36 -241.5q0 -122 -35 -236.5t-105 -212t-167 -170t-227.5 -113.5t-280.5 -41q-121 0 -231 28.5t-197.5 80.5t-159 124t-119 157.5 t-73.5 183t-26 199.5zM323 754q0 -81 20 -157t57 -139t90.5 -115t117.5 -88t141 -56t160 -20q100 0 191 28t162.5 80t124.5 122t81.5 158.5t28.5 186.5q0 122 -44.5 229t-122 183t-187 119.5t-234.5 43.5q-124 0 -233 -43.5t-186.5 -119.5t-122 -183t-44.5 -229z" />
<glyph unicode="P" horiz-adv-x="1127" d="M154 0v1509h472q120 0 213.5 -34t151 -94t86.5 -137.5t29 -168.5t-31 -166.5t-91.5 -133.5t-159.5 -90.5t-227 -32.5h-225v-652h-218zM372 847h245q122 0 193.5 63t71.5 174q0 45 -12.5 83.5t-40.5 72.5t-80 54t-123 20h-254v-467z" />
<glyph unicode="Q" horiz-adv-x="1819" d="M99 754q0 169 61.5 313t170.5 245.5t264 158.5t336 57q167 0 314 -59.5t252.5 -163t166.5 -248t61 -307.5q0 -181 -80.5 -340t-223.5 -267t-324 -143v-2q104 -44 180.5 -70.5t145.5 -40.5q62 -13 115 -13h11q57 2 112 18l7 -6l-195 -194q-105 8 -207 35t-195.5 70.5 t-173 91.5t-165.5 111q-138 26 -256 95t-200.5 167.5t-129.5 225.5t-47 266zM323 752q0 -93 23.5 -177t73 -156.5t120 -125.5t170 -83.5t217.5 -30.5q123 0 231 46t183 123t118 181t43 218q0 122 -44 230t-120.5 185.5t-184.5 122t-231 44.5q-93 0 -174.5 -20t-141.5 -54 t-109 -81t-80.5 -99t-53.5 -109t-31 -110.5t-9 -103.5z" />
<glyph unicode="R" horiz-adv-x="1334" d="M171 0v1509h380q229 0 362.5 -113.5t133.5 -309.5q0 -87 -29.5 -159t-86 -125t-137.5 -85q33 -22 63.5 -48t60.5 -61t52 -62.5t54 -77t50.5 -79t56.5 -91.5q10 -17 19.5 -32t20.5 -31.5t17.5 -27t20.5 -30t19.5 -27.5t23 -33t23.5 -33t29.5 -40.5t31.5 -43.5h-259 l-199 310q-49 76 -90.5 133t-77.5 94.5t-65.5 61t-59 35.5t-53.5 16t-55 4h-90v-654h-216zM387 849h139q84 0 144 20t92 55.5t46.5 77.5t14.5 93q0 109 -72 168.5t-225 59.5h-139v-474z" />
<glyph unicode="S" horiz-adv-x="1011" d="M89 1125q0 184 125 293.5t332 109.5q179 0 336 -106v-245q-165 157 -354 157q-69 0 -123.5 -22.5t-85 -63.5t-30.5 -93q0 -47 22.5 -87t60.5 -72t86.5 -62t103 -60.5t108.5 -63t103 -74.5t86.5 -90t60 -114t22.5 -143q0 -117 -54.5 -210.5t-151.5 -145.5t-217 -52 q-122 0 -224.5 33.5t-197.5 105.5v274q83 -106 185.5 -162.5t213.5 -56.5q60 0 108.5 17.5t77.5 46t44 61t15 65.5q0 45 -18.5 86t-49.5 73t-73 64.5t-89 60t-96.5 59t-96.5 61.5t-88.5 68.5t-73 79.5t-49.5 95t-18 113z" />
<glyph unicode="T" horiz-adv-x="1334" d="M38 1314v195h1260v-195h-521v-1314h-218v1314h-521z" />
<glyph unicode="U" horiz-adv-x="1564" d="M135 570v939h217v-892q0 -127 19.5 -192.5t71.5 -116.5q128 -129 325 -129q118 0 208 33.5t145 88.5q23 23 40 51t27.5 58t16.5 66.5t8.5 73t2.5 81.5v878h217v-916q0 -140 -42 -252t-124 -192.5t-210 -124t-293 -43.5q-98 0 -188 21t-171 68t-140.5 114.5t-94.5 166.5 t-35 219z" />
<glyph unicode="V" horiz-adv-x="1334" d="M0 1509h217l454 -1060l450 1060h215l-639 -1522h-45z" />
<glyph unicode="W" horiz-adv-x="2304" d="M0 1509h217l416 -1040l418 1040h205l420 -1040l412 1040h215l-613 -1522h-42l-496 1233l-500 -1233h-42z" />
<glyph unicode="X" horiz-adv-x="1564" d="M4 0l650 781l-603 728h263l473 -576l471 576h262l-602 -728l644 -781h-262l-513 624l-519 -624h-264z" />
<glyph unicode="Y" horiz-adv-x="1334" d="M0 1509h261l404 -521l410 521h261l-559 -713v-796h-218v798z" />
<glyph unicode="Z" horiz-adv-x="1428" d="M36 0l960 1314h-901v195h1300l-960 -1315h960v-194h-1359z" />
<glyph unicode="[" horiz-adv-x="735" d="M190 -489v1998h515v-177h-302v-1644h302v-177h-515z" />
<glyph unicode="\" horiz-adv-x="621" d="M17 1528h156l433 -1547h-155z" />
<glyph unicode="]" horiz-adv-x="735" d="M31 -312h303v1644h-303v177h515v-1998h-515v177z" />
<glyph unicode="^" horiz-adv-x="1036" d="M57 644l384 865h156l383 -865h-197l-266 646l-260 -646h-200z" />
<glyph unicode="_" d="M-13 -166h1132v-110h-1132v110z" />
<glyph unicode="`" horiz-adv-x="735" d="M133 1446h221l148 -325h-122z" />
<glyph unicode="a" horiz-adv-x="943" d="M57 224q0 38 9 70.5t23 58t39 48.5t50 40t64 35t72 31t82 31l174 61v53q0 92 -44 133.5t-135 41.5q-174 0 -313 -164v215q115 135 329 135q51 0 96.5 -8.5t86 -26t73 -44.5t56 -63t36.5 -83t13 -102v-511q0 -28 8.5 -39.5t28.5 -11.5q34 0 104 53v-120 q-69 -45 -107 -60.5t-83 -15.5q-43 0 -73.5 10.5t-49.5 32.5t-28 58q-129 -101 -267 -101q-106 0 -175 71.5t-69 171.5zM257 259q0 -61 40 -100t102 -39q87 0 171 81v290q-49 -16 -82 -28.5t-73 -30t-65.5 -34.5t-48 -38.5t-33.5 -46.5t-11 -54z" />
<glyph unicode="b" d="M131 55v1454h196v-587q128 91 275 91q122 0 220 -64t153 -177.5t55 -254.5q0 -252 -140.5 -394t-389.5 -142q-98 0 -197.5 19.5t-171.5 54.5zM327 197q43 -13 99.5 -22t99.5 -9q133 0 218 91t85 232q0 158 -75.5 252.5t-200.5 94.5q-62 0 -112.5 -22.5t-113.5 -79.5v-537 z" />
<glyph unicode="c" horiz-adv-x="968" d="M91 477q0 246 132.5 391t358.5 145q55 0 105.5 -9t89.5 -23t92 -37v-210q-81 55 -143.5 76.5t-130.5 21.5q-135 0 -219 -93t-84 -243q0 -153 91.5 -241.5t245.5 -88.5q114 0 262 66v-194q-50 -24 -134.5 -40.5t-161.5 -16.5q-146 0 -261 63t-179 176t-64 257z" />
<glyph unicode="d" horiz-adv-x="1127" d="M97 519q0 142 63.5 255t176.5 176t256 63q98 0 207 -40v536h198v-1509h-418q-222 0 -352.5 140.5t-130.5 378.5zM298 491q0 -325 304 -325h198v632q-92 38 -183 38q-143 0 -231 -94.5t-88 -250.5z" />
<glyph unicode="e" horiz-adv-x="1058" d="M91 509q0 148 58.5 263t164 178t241.5 63q203 0 317 -138.5t114 -407.5h-699q24 -148 108 -223.5t226 -75.5q168 0 348 119v-190q-93 -62 -183 -89t-214 -27q-90 0 -168.5 28.5t-135 78t-97 116.5t-60.5 144.5t-20 160.5zM292 597h500q-5 114 -67 179.5t-166 65.5 q-111 0 -179 -63t-88 -182z" />
<glyph unicode="f" horiz-adv-x="552" d="M19 816v178h140v72q0 138 31 220.5t95 146.5q33 33 69.5 54.5t81.5 32.5q37 10 81 10h19q55 -3 118 -21v-192q-44 17 -88 17q-114 0 -162 -62t-48 -183v-95h180v-178h-180v-816h-197v816h-140z" />
<glyph unicode="g" horiz-adv-x="943" d="M0 -208q0 73 26.5 126.5t81.5 90t141 57.5q-99 61 -99 126q0 48 43.5 87t114.5 55v4q-110 47 -167 126q-52 76 -52 186q0 160 116 252t317 92h409v-154h-203q58 -58 81 -105.5t23 -110.5q0 -59 -28 -122.5t-65 -100.5q-31 -33 -76 -55t-88 -31t-87 -17.5t-77 -15.5 t-54 -24.5t-21 -44.5q0 -40 72 -68.5t231 -60.5q152 -30 220 -102t68 -174q0 -148 -124.5 -232.5t-344.5 -84.5q-132 0 -236.5 38.5t-163 107t-58.5 155.5zM186 -199q0 -49 31.5 -83.5t93.5 -52t151 -17.5q130 0 202.5 38t72.5 106q0 36 -22.5 64.5t-57 46t-79.5 29 t-86 15.5t-81 4q-99 0 -162 -41.5t-63 -108.5zM266 644q0 -82 54.5 -132t143.5 -50q41 0 76.5 14t60.5 38.5t39 59t14 74.5q0 71 -57 123t-135 52q-81 0 -138.5 -53t-57.5 -126z" />
<glyph unicode="h" d="M135 0v1509h197v-646h4q37 47 85.5 81t102.5 51.5t109 17.5q74 0 135 -25.5t106.5 -74.5t71 -127t25.5 -178v-608h-197v615q0 109 -52.5 175t-141.5 66q-65 0 -121.5 -33t-126.5 -111v-712h-197z" />
<glyph unicode="i" horiz-adv-x="483" d="M126 1294q0 48 34.5 83t82.5 35t83 -35t35 -83t-35 -82.5t-83 -34.5t-82.5 34.5t-34.5 82.5zM144 0v994h196v-994h-196z" />
<glyph unicode="j" horiz-adv-x="483" d="M-13 -363q68 28 108 83t40 134v1140h197v-1125q0 -104 -23 -176.5t-64 -118t-110 -83.5zM118 1294q0 48 34.5 83t82 35t82.5 -35t35 -83t-35 -82.5t-82.5 -34.5t-82 34.5t-34.5 82.5z" />
<glyph unicode="k" horiz-adv-x="1058" d="M137 0v1509h197v-1509h-197zM342 507l441 487h234l-424 -487l513 -507h-266z" />
<glyph unicode="l" horiz-adv-x="483" d="M144 0v1509h196v-1509h-196z" />
<glyph unicode="m" horiz-adv-x="1705" d="M131 0v994h196v-131q150 150 290 150q95 0 171.5 -45.5t125.5 -133.5q48 54 93 90.5t108 62.5t130 26q150 0 240 -106t90 -283v-624h-197v615q0 108 -59 170t-147 62h-3q-45 1 -103 -33q-60 -34 -115 -93v-721h-197v617q0 115 -50.5 172.5t-128.5 57.5q-51 0 -91 -11.5 t-78 -39t-79 -75.5v-721h-196z" />
<glyph unicode="n" d="M135 0v994h197v-131h4q37 47 85.5 81t102.5 51.5t109 17.5q72 0 132.5 -25t107 -73t72.5 -125.5t26 -177.5v-612h-197v615q0 109 -52.5 175t-141.5 66q-65 0 -121.5 -33t-126.5 -111v-712h-197z" />
<glyph unicode="o" horiz-adv-x="1220" d="M80 507q0 105 40.5 199t110 161t167 106.5t206.5 39.5q154 0 277 -65t192 -180.5t69 -260.5q0 -156 -68 -275.5t-190.5 -185t-279.5 -65.5q-151 0 -271 67t-186.5 187.5t-66.5 271.5zM281 507q0 -158 88.5 -254t232.5 -96q156 0 247 93t91 254q0 95 -43.5 171 t-120.5 118.5t-174 42.5q-140 0 -230.5 -93.5t-90.5 -235.5z" />
<glyph unicode="p" d="M126 -509v1503h341q272 0 415.5 -129.5t143.5 -375.5q0 -147 -64.5 -263t-179.5 -180.5t-260 -64.5q-92 0 -199 44v-534h-197zM323 201q90 -44 186 -44q137 0 226.5 95t89.5 239q0 150 -91.5 237.5t-231.5 87.5h-179v-615z" />
<glyph unicode="q" d="M80 489q0 38 5.5 78.5t21 91t40 96t67 90t96.5 77t133 52.5t174 20h363v-1503h-197v524q-118 -34 -199 -34q-145 0 -260 64.5t-179.5 180.5t-64.5 263zM281 491q0 -71 23.5 -134.5t65 -110t101 -73.5t126.5 -27q96 0 186 44v626h-179q-61 0 -117 -19.5t-103 -57.5 t-75 -102t-28 -146z" />
<glyph unicode="r" horiz-adv-x="875" d="M152 0v994h198v-228h4q141 247 288 247q114 0 236 -116l-104 -169q-29 28 -63 50.5t-65.5 34.5t-54.5 12q-101 0 -171 -88.5t-70 -217.5v-519h-198z" />
<glyph unicode="s" horiz-adv-x="851" d="M91 71v212q62 -43 123 -73t111 -44t91 -14q63 4 104.5 33.5t41.5 80.5q0 24 -20 48.5t-53 46t-74.5 46t-85 48.5t-85.5 55.5t-74.5 64.5t-52.5 76.5t-20 91.5q0 126 88.5 198t238.5 72q139 0 293 -82v-194q-78 52 -153.5 77.5t-134.5 25.5q-60 0 -95.5 -25t-35.5 -65 q0 -33 54.5 -77.5t187.5 -121.5q125 -82 174.5 -143t49.5 -136q0 -130 -93 -210.5t-236 -80.5q-91 0 -169.5 20.5t-174.5 69.5z" />
<glyph unicode="t" horiz-adv-x="735" d="M0 816v22l369 361v-205h315v-178h-315v-508q0 -42 14 -73t36 -47t45 -23.5t47 -7.5q103 0 223 73v-184q-50 -27 -120 -46t-118 -19q-156 0 -239.5 85.5t-83.5 225.5v524h-173z" />
<glyph unicode="u" d="M133 376v618h196v-631q0 -106 52 -162.5t153 -56.5q66 0 127 35.5t109 103.5v711h197v-994h-197v126q-62 -66 -142 -105.5t-153 -39.5q-75 0 -138 26.5t-108.5 76t-70.5 124.5t-25 168z" />
<glyph unicode="v" horiz-adv-x="968" d="M6 994h215l268 -612l261 612h210l-438 -1013h-66z" />
<glyph unicode="w" horiz-adv-x="1589" d="M0 994h211l260 -603l253 603h145l252 -603l259 603h211l-439 -1013h-61l-295 694l-292 -694h-61z" />
<glyph unicode="x" d="M0 0l418 504l-418 490h247l295 -342l283 342h252l-410 -490l439 -504h-252l-312 356l-295 -356h-247z" />
<glyph unicode="y" horiz-adv-x="968" d="M0 994h224l267 -561l256 561h222l-703 -1503h-220l338 722z" />
<glyph unicode="z" horiz-adv-x="922" d="M25 0l526 816h-505v178h847l-528 -817h530v-177h-870z" />
<glyph unicode="{" horiz-adv-x="735" d="M62 485v176q53 0 92.5 16.5t64.5 45t40 75t20.5 99.5t5.5 125v194q0 99 16 170.5t52.5 122.5t97.5 76t148 25h87v-168h-34q-60 0 -94.5 -8.5t-56 -35t-28 -67.5t-6.5 -113v-159q0 -150 -22.5 -243.5t-70.5 -150t-133 -93.5q85 -36 133 -92t70.5 -149.5t22.5 -244.5v-159 q0 -48 2.5 -80.5t11 -59t21 -41.5t34 -25t49 -13.5t67.5 -3.5h34v-168h-87q-87 0 -148 24.5t-97.5 75.5t-52.5 122t-16 171v195q0 59 -4 105.5t-13.5 88.5t-26 71.5t-41 51.5t-59.5 33t-79 11z" />
<glyph unicode="|" horiz-adv-x="574" d="M203 -509v2018h169v-2018h-169z" />
<glyph unicode="}" horiz-adv-x="735" d="M51 -296h33q40 0 67.5 3.5t49.5 13.5t34.5 25t20.5 41.5t11 59t3 80.5v159q0 151 22.5 244.5t70.5 149.5t133 92q-85 37 -133 93.5t-70.5 150t-22.5 243.5v159q0 72 -7 113t-28.5 67.5t-56 35t-94.5 8.5h-33v168h86q88 0 149 -25t97 -76t52 -122.5t16 -170.5v-194 q0 -72 6 -125t21 -99.5t40 -75t64 -45t93 -16.5v-176q-45 0 -79.5 -11t-59 -33t-41 -51.5t-26.5 -71.5t-14 -88.5t-4 -105.5v-195q0 -100 -16 -171t-52 -122t-97 -75.5t-149 -24.5h-86v168z" />
<glyph unicode="~" horiz-adv-x="1291" d="M55 438v183q170 143 329 143q43 0 95 -14t88 -28.5t96 -42.5q64 -29 95.5 -42t82 -27.5t88.5 -14.5q46 0 102.5 21.5t106.5 53t101 73.5v-184q-74 -63 -158 -102t-165 -39q-41 0 -92 13.5t-88.5 29t-96.5 41.5q-65 29 -97 42.5t-83 27.5t-90 14q-74 0 -147.5 -37.5 t-166.5 -110.5z" />
<glyph unicode="&#xa9;" horiz-adv-x="1636" d="M2 796q0 166 64.5 317t173 260t259.5 173t317.5 64t317.5 -64t260 -173t173.5 -260t64.5 -317t-64.5 -317t-173.5 -260.5t-260 -173.5t-317.5 -64t-317.5 64t-259.5 173.5t-173 260.5t-64.5 317zM137 795.5q0 -138.5 54 -264.5t144.5 -217t216.5 -145.5t264.5 -54.5 t264.5 54.5t217 145.5t145 217t54 264.5t-54 264.5t-145 217t-217 144.5t-264.5 53.5t-264.5 -53.5t-216.5 -144.5t-144.5 -217t-54 -264.5zM391 808q0 133 54 234t153 155.5t229 54.5q142 0 237.5 -65.5t132.5 -188.5l-129 -31q-67 166 -252 166q-126 0 -201 -95t-75 -253 q0 -154 74 -241.5t205 -87.5q95 0 165.5 56.5t94.5 150.5l133 -39q-33 -141 -138.5 -218t-263.5 -77q-193 0 -306 129.5t-113 349.5z" />
<glyph unicode="&#xab;" horiz-adv-x="1083" d="M66 498l325 498h195l-327 -498l327 -498h-195zM515 498l325 498h195l-328 -498l328 -498h-195z" />
<glyph unicode="&#xad;" horiz-adv-x="713" d="M89 384v207h537v-207h-537z" />
<glyph unicode="&#xae;" horiz-adv-x="1636" d="M2 796q0 166 64.5 317t173 260t259.5 173t317.5 64t317.5 -64t260 -173t173.5 -260t64.5 -317t-64.5 -317t-173.5 -260.5t-260 -173.5t-317.5 -64t-317.5 64t-259.5 173.5t-173 260.5t-64.5 317zM137 795.5q0 -138.5 54 -264.5t144.5 -217t216.5 -145.5t264.5 -54.5 t264.5 54.5t217 145.5t145 217t54 264.5t-54 264.5t-145 217t-217 144.5t-264.5 53.5t-264.5 -53.5t-216.5 -144.5t-144.5 -217t-54 -264.5zM460 345v875h387q62 0 113 -14.5t83 -38t54 -54.5t31 -61t9 -61q0 -106 -69.5 -176t-180.5 -76v-5q52 -18 97 -69t107 -150 l106 -170h-173l-77 137q-57 102 -94 149.5t-74 66.5t-93 19h-84v-372h-142zM602 838h203q84 0 132.5 33.5t48.5 99.5q0 59 -43 95t-114 36h-227v-264z" />
<glyph unicode="&#xbb;" horiz-adv-x="1083" d="M49 0l327 498l-327 498h194l325 -498l-325 -498h-194zM498 0l327 498l-327 498h194l325 -498l-325 -498h-194z" />
<glyph unicode="&#x401;" d="M166 0v1509h856v-195h-640v-455h618v-196h-618v-469h660v-194h-876zM255 1805q0 17 5 32.5t15 28t22.5 21.5t28.5 14t33 5q42 0 71.5 -29t29.5 -72q0 -29 -13.5 -52.5t-36.5 -37.5t-51 -14q-43 0 -73.5 30.5t-30.5 73.5zM665 1805q0 42 31 71.5t74 29.5t72.5 -29 t29.5 -72t-29.5 -73.5t-72.5 -30.5t-74 30.5t-31 73.5z" />
<glyph unicode="&#x402;" horiz-adv-x="1642" d="M38 1314v195h1260v-195h-521v-514q43 77 144 136.5t218 59.5q126 0 228 -59t160 -164t58 -235q0 -100 -28.5 -187t-78.5 -150.5t-117 -109.5t-145 -68.5t-161 -22.5h-53v177h75q76 0 143.5 44.5t108 122.5t40.5 171q0 69 -21.5 124t-59 89.5t-86.5 53t-105 18.5 q-143 0 -231.5 -88t-88.5 -227v-485h-218v1314h-521z" />
<glyph unicode="&#x403;" horiz-adv-x="1047" d="M166 0v1509h856v-195h-640v-1314h-216zM473 1621l177 392h268l-299 -392h-146z" />
<glyph unicode="&#x404;" horiz-adv-x="1564" d="M102 732q0 170 62 318t171 253t263 165t331 60q116 0 239.5 -29.5t277.5 -94.5v-232q-140 81 -264.5 119t-254.5 38q-152 0 -279 -59.5t-208.5 -166.5t-105.5 -244h776v-196h-778q30 -218 194 -351t409 -133q128 0 263.5 44t263.5 127v-238q-79 -42 -155 -69 t-176.5 -44.5t-214.5 -17.5q-104 0 -197.5 19t-168.5 53.5t-140 81.5t-113.5 103t-86 117.5t-61.5 126t-35.5 127.5t-11.5 123z" />
<glyph unicode="&#x405;" horiz-adv-x="1011" d="M89 1125q0 184 125 293.5t332 109.5q179 0 336 -106v-245q-165 157 -354 157q-69 0 -123.5 -22.5t-85 -63.5t-30.5 -93q0 -47 22.5 -87t60.5 -72t86.5 -62t103 -60.5t108.5 -63t103 -74.5t86.5 -90t60 -114t22.5 -143q0 -117 -54.5 -210.5t-151.5 -145.5t-217 -52 q-122 0 -224.5 33.5t-197.5 105.5v274q83 -106 185.5 -162.5t213.5 -56.5q60 0 108.5 17.5t77.5 46t44 61t15 65.5q0 45 -18.5 86t-49.5 73t-73 64.5t-89 60t-96.5 59t-96.5 61.5t-88.5 68.5t-73 79.5t-49.5 95t-18 113z" />
<glyph unicode="&#x406;" horiz-adv-x="552" d="M159 1792q0 48 34.5 81t82.5 33q33 0 59 -14.5t41 -41t15 -58.5q0 -49 -33 -83.5t-82 -34.5q-23 0 -44.5 9.5t-37.5 25.5t-25.5 37.5t-9.5 45.5zM168 0v1509h216v-1509h-216z" />
<glyph unicode="&#x407;" horiz-adv-x="552" d="M-38 1803q0 42 30.5 71.5t73.5 29.5q28 0 51.5 -13.5t37 -36.5t13.5 -51q0 -44 -29.5 -74t-72.5 -30t-73.5 30.5t-30.5 73.5zM168 0v1509h216v-1509h-216zM374 1803q0 42 30 71.5t73 29.5t73 -29.5t30 -71.5q0 -44 -30 -74t-73 -30t-73 30.5t-30 73.5z" />
<glyph unicode="&#x408;" horiz-adv-x="552" d="M-137 -303h55q49 0 86.5 7.5t64 20t44.5 36.5t29 49t17 65t7.5 78t1.5 93v1463h216v-1526q0 -87 -13.5 -159.5t-45 -135t-79 -105.5t-118 -67.5t-159.5 -24.5q-23 0 -66 5z" />
<glyph unicode="&#x409;" horiz-adv-x="1999" d="M0 0l648 1517h152l286 -643h326q127 1 230 -34.5t168.5 -96.5t100.5 -140.5t35 -169.5q0 -84 -32.5 -158.5t-92 -132.5t-149 -95t-197.5 -45v-2h-221l-87 194v3l-446 1027l-500 -1224h-221zM1172 679l217 -485h57q71 0 126 20.5t86.5 54t48 73t16.5 82.5q0 113 -77.5 184 t-199.5 71h-274z" />
<glyph unicode="&#x40a;" horiz-adv-x="2282" d="M166 0v1509h216v-658h846v658h216v-658h244q103 0 190 -20.5t150 -58.5t107 -90t66 -115t22 -134q0 -89 -37 -168t-103.5 -138t-167 -93t-220.5 -34h-467v657h-846v-657h-216zM1444 194h279q70 0 125 20.5t87 54t48 73t16 82.5q0 111 -76 172t-200 61h-279v-463z" />
<glyph unicode="&#x40b;" horiz-adv-x="1589" d="M38 1314v195h1279v-195h-540v-352h293q222 0 342.5 -117.5t120.5 -335.5v-509h-216v504q0 71 -21.5 123.5t-58.5 82t-82.5 44t-99.5 14.5h-278v-768h-218v1314h-521z" />
<glyph unicode="&#x40c;" horiz-adv-x="1450" d="M166 0v1509h216v-614h63q63 0 109 11t91 39.5t81.5 82t69.5 135.5q40 101 82 167t95 106t114 56.5t143 16.5h33v-195q-49 0 -85.5 -5t-65 -19.5t-48 -31.5t-37.5 -48t-30.5 -61.5t-29.5 -80.5q-29 -83 -89 -159.5t-120 -103.5q181 -85 328 -345l261 -460h-245l-235 407 q-92 160 -200.5 236t-221.5 76h-63v-719h-216zM524 1553l177 391h268l-298 -391h-147z" />
<glyph unicode="&#x40e;" horiz-adv-x="1454" d="M19 1509h218l542 -1262l445 1262h211l-561 -1509q-46 -122 -99.5 -197t-121 -110t-155.5 -35q-108 0 -190 53v194q18 -19 39 -32.5t45.5 -22t52.5 -12.5t62 -4q31 0 68.5 19t69 58.5t36.5 88.5zM606 1572l177 393h268l-299 -393h-146z" />
<glyph unicode="&#x40f;" horiz-adv-x="1735" d="M166 0v1509h216v-1315h846v1315h216v-1509h-493v-276h-217v276h-568z" />
<glyph unicode="&#x410;" horiz-adv-x="1475" d="M0 0l648 1517h152l675 -1517h-221l-201 445h-642l-190 -445h-221zM496 639h468l-243 547z" />
<glyph unicode="&#x411;" horiz-adv-x="1298" d="M166 0v1509h962v-195h-746v-409h306q159 0 281.5 -53.5t191.5 -157t69 -243.5q0 -138 -69 -240.5t-191.5 -156.5t-281.5 -54h-522zM382 194h333q131 0 211.5 75t80.5 182q0 126 -85 192.5t-251 66.5h-289v-516z" />
<glyph unicode="&#x412;" horiz-adv-x="1245" d="M166 0v1509h438q79 0 147 -15.5t118 -42.5t88.5 -63.5t62.5 -80t36 -89.5t12 -95q0 -117 -56 -196t-174 -127v-4q169 -32 266 -136.5t97 -256.5q0 -58 -17 -113.5t-56.5 -108.5t-98 -93t-147.5 -64t-198 -24h-518zM382 194h272q54 0 98.5 7.5t77.5 20.5t58.5 31t42 39 t27.5 45t15 47.5t4 48.5q0 107 -84 170.5t-249 63.5h-262v-473zM382 863h144q161 0 240 59.5t79 181.5q0 44 -13.5 80.5t-43 66.5t-82 46.5t-124.5 16.5h-200v-451z" />
<glyph unicode="&#x413;" horiz-adv-x="1047" d="M166 0v1509h856v-195h-640v-1314h-216z" />
<glyph unicode="&#x414;" horiz-adv-x="1653" d="M17 194h222l498 1323h152l523 -1323h220v-470h-220v276h-1173v-276h-222v470zM456 194h736l-382 1007z" />
<glyph unicode="&#x415;" d="M166 0v1509h856v-195h-640v-455h618v-196h-618v-469h660v-194h-876z" />
<glyph unicode="&#x416;" horiz-adv-x="2273" d="M68 0l363 549q67 100 130.5 153t162.5 98q-70 34 -135 110t-93 158q-17 50 -30 80.5t-31 61.5t-38 48t-48.5 31.5t-65 19.5t-84.5 5v195h33q55 0 99 -7t84.5 -23.5t73.5 -42.5t64 -64.5t58.5 -89.5t53.5 -119q33 -82 70 -135.5t82 -82t91 -39.5t109 -11v614h217v-614 q51 0 89 6.5t76.5 24t69.5 47t60.5 77t55.5 113.5q40 101 82.5 167t95.5 106t113.5 56.5t143.5 16.5h33v-195q-42 0 -74.5 -4.5t-58.5 -12.5t-46.5 -24t-36 -33t-30 -45.5t-25.5 -56.5t-26 -70q-19 -54 -55 -108t-81.5 -96t-91.5 -64q99 -45 162.5 -98t130.5 -153l362 -549 h-250l-294 460q-31 49 -73.5 94t-94 82.5t-113.5 60t-124 22.5v-719h-217v719q-49 0 -99.5 -14.5t-93.5 -40t-83.5 -59t-72 -70t-56.5 -75.5l-293 -460h-251z" />
<glyph unicode="&#x417;" horiz-adv-x="1138" d="M122 62v234q82 -56 176 -83t182 -27q33 0 65 2.5t67.5 10t65.5 19t57.5 30.5t47 43t31 58.5t11.5 74.5q0 49 -18.5 90.5t-59 77t-113 55.5t-170.5 20h-223v194h283q62 0 117 21.5t92.5 56.5t59 79t21.5 88q0 73 -39.5 123t-103 72t-147.5 22q-79 0 -189.5 -23t-199.5 -72 v201q93 43 227.5 71t226.5 28q71 0 134.5 -13t120.5 -43t98 -75t64.5 -112t23.5 -150q0 -67 -22 -128t-60 -106.5t-85.5 -78.5t-101.5 -50q54 -16 102.5 -46t89.5 -73.5t65 -105.5t24 -133q0 -85 -28.5 -157t-77.5 -122t-115 -85.5t-141 -52t-156 -16.5q-90 0 -208.5 21.5 t-193.5 59.5z" />
<glyph unicode="&#x418;" horiz-adv-x="1611" d="M166 -17v1526h216v-1148l956 1148h106v-1509h-216v1108l-958 -1125h-104z" />
<glyph unicode="&#x419;" horiz-adv-x="1611" d="M166 -17v1526h216v-1148l956 1148h106v-1509h-216v1108l-958 -1125h-104zM694 1549l178 391h267l-299 -391h-146z" />
<glyph unicode="&#x41a;" horiz-adv-x="1469" d="M166 0v1509h216v-614h63q63 0 109 11t91 39.5t81.5 82t69.5 135.5q40 101 82 167t95 106t114 56.5t143 16.5h33v-195q-49 0 -85.5 -5t-65 -19.5t-48 -31.5t-37.5 -48t-30.5 -61.5t-29.5 -80.5q-29 -83 -89 -159.5t-120 -103.5q181 -85 328 -345l261 -460h-245l-235 407 q-92 160 -200.5 236t-221.5 76h-63v-719h-216z" />
<glyph unicode="&#x41b;" horiz-adv-x="1475" d="M0 0l648 1517h152l675 -1517h-221l-533 1224l-500 -1224h-221z" />
<glyph unicode="&#x41c;" horiz-adv-x="1726" d="M162 0v1509h203l500 -620l502 620h201v-1509h-217v1174h-4l-465 -583h-35l-465 583h-4v-1174h-216z" />
<glyph unicode="&#x41d;" horiz-adv-x="1611" d="M166 0v1509h216v-658h846v658h216v-1509h-216v657h-846v-657h-216z" />
<glyph unicode="&#x41e;" horiz-adv-x="1819" d="M99 754q0 89 19 174.5t56.5 162t89.5 143.5t121 121t149.5 92.5t176 59.5t198.5 21q147 0 275.5 -40t225.5 -111.5t167.5 -168t106.5 -213t36 -241.5q0 -122 -35 -236.5t-105 -212t-167 -170t-227.5 -113.5t-280.5 -41q-121 0 -231 28.5t-197.5 80.5t-159 124t-119 157.5 t-73.5 183t-26 199.5zM323 754q0 -81 20 -157t57 -139t90.5 -115t117.5 -88t141 -56t160 -20q100 0 191 28t162.5 80t124.5 122t81.5 158.5t28.5 186.5q0 122 -44.5 229t-122 183t-187 119.5t-234.5 43.5q-124 0 -233 -43.5t-186.5 -119.5t-122 -183t-44.5 -229z" />
<glyph unicode="&#x41f;" horiz-adv-x="1611" d="M166 0v1509h1278v-1509h-216v1314h-846v-1314h-216z" />
<glyph unicode="&#x420;" horiz-adv-x="1127" d="M154 0v1509h472q120 0 213.5 -34t151 -94t86.5 -137.5t29 -168.5t-31 -166.5t-91.5 -133.5t-159.5 -90.5t-227 -32.5h-225v-652h-218zM372 847h245q122 0 193.5 63t71.5 174q0 45 -12.5 83.5t-40.5 72.5t-80 54t-123 20h-254v-467z" />
<glyph unicode="&#x421;" horiz-adv-x="1564" d="M106 732q0 170 62 318t171 253t263 165t331 60q116 0 240 -29.5t277 -94.5v-232q-140 81 -264.5 119t-254.5 38q-127 0 -239 -43.5t-191.5 -120t-125.5 -184t-46 -229.5q0 -101 28.5 -189.5t82.5 -158.5t128 -120.5t169 -77.5t203 -27q127 0 262.5 44t264.5 127v-238 q-122 -64 -251 -97.5t-296 -33.5q-118 0 -223 25t-186 68.5t-148.5 102.5t-114.5 126.5t-79.5 141.5t-47.5 146t-15 141z" />
<glyph unicode="&#x422;" horiz-adv-x="1334" d="M38 1314v195h1260v-195h-521v-1314h-218v1314h-521z" />
<glyph unicode="&#x423;" horiz-adv-x="1454" d="M0 1509h217l541 -1262l445 1262h213l-562 -1509q-68 -182 -156.5 -262t-220.5 -80q-108 0 -190 53v194q69 -71 200 -71q32 0 69 19t68.5 58.5t36.5 88.5z" />
<glyph unicode="&#x424;" horiz-adv-x="1819" d="M99 754q0 116 36 216t100 173.5t151.5 126t192.5 78.5t221 26v135h217v-135q117 0 222 -26t193 -78.5t152.5 -126t100 -173.5t35.5 -216q0 -139 -55.5 -255t-151 -193.5t-223.5 -121t-273 -43.5v-141h-217v141q-144 0 -272 43.5t-223 121t-150.5 193.5t-55.5 255z M323 756q0 -103 37 -184t103 -130.5t151.5 -75.5t185.5 -26v834q-100 0 -185.5 -25.5t-151.5 -76t-103 -131.5t-37 -185zM1017 340q101 0 187 25.5t152 75.5t103.5 130t37.5 183q0 105 -37.5 186.5t-104 131.5t-152 76t-186.5 26v-834z" />
<glyph unicode="&#x425;" horiz-adv-x="1564" d="M4 0l650 781l-603 728h263l473 -576l471 576h262l-602 -728l644 -781h-262l-513 624l-519 -624h-264z" />
<glyph unicode="&#x426;" horiz-adv-x="1735" d="M166 0v1509h216v-1315h846v1315h216v-1315h230v-470h-216v276h-1292z" />
<glyph unicode="&#x427;" horiz-adv-x="1344" d="M59 1131v378h217v-399q0 -64 13.5 -116t36.5 -89.5t58.5 -65.5t76 -45.5t93 -28t104.5 -14.5t116 -4h186v762h217v-1509h-217v553h-179q-122 0 -225 17t-196.5 59t-158.5 106.5t-103.5 165.5t-38.5 230z" />
<glyph unicode="&#x428;" horiz-adv-x="2036" d="M166 0v1509h216v-1315h525l7 -6v1321h217v-1315h524v1315h217v-1509h-1706z" />
<glyph unicode="&#x429;" horiz-adv-x="2147" d="M166 0v1509h216v-1315h525l7 -6v1321h217v-1315h524v1315h217v-1315h222v-470h-216v276h-1712z" />
<glyph unicode="&#x42a;" horiz-adv-x="1364" d="M-55 1325v184h557v-635h243q127 0 228 -35.5t163 -96.5t94.5 -140t32.5 -169t-34.5 -168.5t-97.5 -137.5t-161 -93t-218 -34h-467v1325h-340zM502 194h279q57 0 102 13.5t74 36t48 52.5t27 62t8 66q0 115 -69.5 185t-189.5 70h-279v-485z" />
<glyph unicode="&#x42b;" horiz-adv-x="1798" d="M166 0v1509h216v-635h244q128 0 228.5 -35.5t162.5 -96.5t94.5 -140t32.5 -169t-34 -168.5t-97.5 -137.5t-161.5 -93t-218 -34h-467zM382 194h279q70 0 122.5 20t81 54.5t42 73t13.5 82.5q0 115 -69.5 185t-189.5 70h-279v-485zM1412 0v1509h216v-1509h-216z" />
<glyph unicode="&#x42c;" horiz-adv-x="1233" d="M166 0v1509h216v-635h244q128 0 228.5 -35.5t162.5 -96.5t94.5 -140t32.5 -169t-34 -168.5t-97.5 -137.5t-161.5 -93t-218 -34h-467zM382 194h279q70 0 122.5 20t81 54.5t42 73t13.5 82.5q0 115 -69.5 185t-189.5 70h-279v-485z" />
<glyph unicode="&#x42d;" horiz-adv-x="1564" d="M104 112v242q130 -84 265 -129.5t262 -45.5q245 0 409 133t194 351h-778v196h776q-24 137 -105.5 244t-208.5 166.5t-279 59.5q-130 0 -254.5 -38t-264.5 -119v232q154 65 277.5 94.5t239.5 29.5q177 0 331 -60t263 -165t171 -253t62 -318q0 -69 -15 -141t-47.5 -146 t-79 -141.5t-114.5 -126.5t-149 -102.5t-186 -68.5t-223 -25q-166 0 -295 33.5t-251 97.5z" />
<glyph unicode="&#x42e;" horiz-adv-x="2330" d="M166 0v1509h216v-664h235q15 141 79.5 265.5t167 217.5t246.5 146.5t310 53.5q105 0 201.5 -20.5t177 -59t149.5 -92.5t121 -121t88.5 -144t55 -162.5t18.5 -174.5q0 -122 -35 -236.5t-105 -212t-167 -170t-228 -113.5t-280 -41q-165 0 -307.5 53t-243 144.5t-164.5 213 t-82 258.5h-237v-650h-216zM834 754q0 -122 44.5 -228.5t122 -182.5t186.5 -120t233 -44q125 0 234.5 44t187 120t122.5 182.5t45 228.5t-45 229t-122.5 183t-187 119.5t-234.5 43.5q-124 0 -233 -43.5t-186.5 -119.5t-122 -183t-44.5 -229z" />
<glyph unicode="&#x42f;" horiz-adv-x="1334" d="M0 0l215 336q146 229 276 325q-52 23 -91 45.5t-82.5 58.5t-71.5 77.5t-46.5 102t-18.5 132.5q0 106 40 189t111.5 135.5t167.5 80t212 27.5h453v-1509h-216v619h-60q-70 0 -124.5 -15t-108 -52.5t-105 -99.5t-110.5 -158l-182 -294h-259zM405 1072q0 -49 19.5 -95 t57.5 -85.5t103.5 -63t148.5 -23.5h215v518h-225q-155 0 -237 -67t-82 -184z" />
<glyph unicode="&#x430;" horiz-adv-x="943" d="M57 224q0 38 9 70.5t23 58t39 48.5t50 40t64 35t72 31t82 31l174 61v53q0 92 -44 133.5t-135 41.5q-174 0 -313 -164v215q115 135 329 135q51 0 96.5 -8.5t86 -26t73 -44.5t56 -63t36.5 -83t13 -102v-511q0 -28 8.5 -39.5t28.5 -11.5q34 0 104 53v-120 q-69 -45 -107 -60.5t-83 -15.5q-43 0 -73.5 10.5t-49.5 32.5t-28 58q-129 -101 -267 -101q-106 0 -175 71.5t-69 171.5zM257 259q0 -61 40 -100t102 -39q87 0 171 81v290q-49 -16 -82 -28.5t-73 -30t-65.5 -34.5t-48 -38.5t-33.5 -46.5t-11 -54z" />
<glyph unicode="&#x431;" horiz-adv-x="1178" d="M89 610q0 177 23.5 312t76.5 242.5t139.5 179.5t210.5 116.5t290 61.5l224 22l-18 -206l-203 -13q-68 -4 -123 -12.5t-112 -26t-101.5 -43.5t-84.5 -66t-65.5 -91.5t-41 -123.5t-15.5 -160q40 61 85.5 104.5t83.5 66.5t82 36t73.5 16t65.5 3q89 0 168 -39t135 -106.5 t89 -161.5t33 -199q0 -154 -62 -276.5t-178 -193.5t-265 -71q-72 0 -135 14t-111.5 40.5t-88.5 63t-68.5 82t-49.5 95t-33.5 106.5t-18 113t-5.5 115zM289 515q0 -82 26 -149t70 -110t99 -66.5t115 -23.5q63 0 118 23.5t96.5 66.5t65.5 110t24 149q0 142 -88.5 234.5 t-215.5 92.5q-57 0 -113 -24.5t-99.5 -66.5t-70.5 -104t-27 -132z" />
<glyph unicode="&#x432;" horiz-adv-x="968" d="M135 0v994h376q160 0 254 -72.5t94 -191.5q0 -80 -43 -139t-104 -87q37 -17 64.5 -34.5t53 -44.5t39 -64.5t13.5 -84.5q0 -54 -18 -102t-56.5 -88t-106 -63t-157.5 -23h-409zM332 177h179q38 0 68.5 7t53.5 22t35.5 40.5t12.5 59.5q0 62 -63 93.5t-164 31.5h-122v-254z M332 562h148q177 0 177 143q0 38 -28.5 64t-67 36.5t-81.5 10.5h-148v-254z" />
<glyph unicode="&#x433;" horiz-adv-x="800" d="M144 0v994h633v-178h-437v-816h-196z" />
<glyph unicode="&#x434;" horiz-adv-x="1226" d="M22 177h149l401 836h112l373 -836h142v-401h-195v224h-787v-224h-195v401zM374 177h477l-236 522z" />
<glyph unicode="&#x435;" horiz-adv-x="1058" d="M91 509q0 148 58.5 263t164 178t241.5 63q203 0 317 -138.5t114 -407.5h-699q24 -148 108 -223.5t226 -75.5q168 0 348 119v-190q-93 -62 -183 -89t-214 -27q-90 0 -168.5 28.5t-135 78t-97 116.5t-60.5 144.5t-20 160.5zM292 597h500q-5 114 -67 179.5t-166 65.5 q-111 0 -179 -63t-88 -182z" />
<glyph unicode="&#x436;" horiz-adv-x="1576" d="M42 0l161 281q58 99 105 148t110 78q-43 32 -91 89.5t-88 124.5l-163 273h213l138 -238q51 -90 98.5 -132t100.5 -42h64v412h197v-412h64q53 0 100.5 41.5t98.5 132.5l137 238h215l-164 -273q-40 -67 -88.5 -124.5t-90.5 -89.5q63 -29 110 -78t105 -148l161 -281h-239 l-135 270q-25 50 -59 85.5t-73 53.5t-80 18h-62v-427h-197v427h-61q-63 0 -119.5 -41t-93.5 -116l-135 -270h-239z" />
<glyph unicode="&#x437;" horiz-adv-x="861" d="M49 71v197q58 -45 148 -75.5t155 -30.5q119 0 179 33.5t60 105.5q0 29 -13.5 52.5t-36.5 39t-54 26t-64.5 15t-70.5 4.5h-113v153q178 0 254.5 27t76.5 106q0 53 -50.5 79t-137.5 26q-161 0 -304 -86v175q49 39 149.5 67t177.5 28q107 0 193.5 -29t140 -88.5t53.5 -139.5 q0 -42 -16.5 -81t-43.5 -68.5t-62.5 -50.5t-74.5 -28q38 -14 73.5 -35t70 -51.5t55 -73.5t20.5 -92q0 -56 -17 -102t-48 -78t-71 -55.5t-89.5 -36.5t-99.5 -19.5t-105 -6.5q-78 0 -186 24.5t-149 68.5z" />
<glyph unicode="&#x438;" horiz-adv-x="1161" d="M144 -22v1016h196v-678l578 678h106v-994h-197v637l-572 -659h-111z" />
<glyph unicode="&#x439;" horiz-adv-x="1161" d="M144 -22v1016h196v-678l578 678h106v-994h-197v637l-572 -659h-111zM517 1093l148 325h222l-248 -325h-122z" />
<glyph unicode="&#x43a;" horiz-adv-x="1041" d="M137 0v994h197v-412h82q53 0 100 41.5t99 132.5l137 238h215l-165 -273q-40 -68 -88 -125t-90 -89q63 -29 109.5 -77.5t104.5 -148.5l162 -281h-239l-135 270q-37 75 -93.5 116t-118.5 41h-80v-427h-197z" />
<glyph unicode="&#x43b;" horiz-adv-x="968" d="M6 -19l456 1013h74l424 -1013h-210l-259 654l-270 -654h-215z" />
<glyph unicode="&#x43c;" horiz-adv-x="1300" d="M86 0l66 994h200l307 -614l292 614h199l70 -994h-185l-62 677l-314 -677l-336 684l-51 -684h-186z" />
<glyph unicode="&#x43d;" horiz-adv-x="1161" d="M144 0v994h196v-392h487v392h197v-994h-197v424h-487v-424h-196z" />
<glyph unicode="&#x43e;" horiz-adv-x="1220" d="M80 507q0 105 40.5 199t110 161t167 106.5t206.5 39.5q154 0 277 -65t192 -180.5t69 -260.5q0 -156 -68 -275.5t-190.5 -185t-279.5 -65.5q-151 0 -271 67t-186.5 187.5t-66.5 271.5zM281 507q0 -158 88.5 -254t232.5 -96q156 0 247 93t91 254q0 95 -43.5 171 t-120.5 118.5t-174 42.5q-140 0 -230.5 -93.5t-90.5 -235.5z" />
<glyph unicode="&#x43f;" horiz-adv-x="1161" d="M144 0v994h880v-994h-197v816h-487v-816h-196z" />
<glyph unicode="&#x440;" d="M126 -509v1503h341q272 0 415.5 -129.5t143.5 -375.5q0 -147 -64.5 -263t-179.5 -180.5t-260 -64.5q-92 0 -199 44v-534h-197zM323 201q90 -44 186 -44q137 0 226.5 95t89.5 239q0 150 -91.5 237.5t-231.5 87.5h-179v-615z" />
<glyph unicode="&#x441;" horiz-adv-x="968" d="M91 477q0 246 132.5 391t358.5 145q55 0 105.5 -9t89.5 -23t92 -37v-210q-81 55 -143.5 76.5t-130.5 21.5q-135 0 -219 -93t-84 -243q0 -153 91.5 -241.5t245.5 -88.5q114 0 262 66v-194q-50 -24 -134.5 -40.5t-161.5 -16.5q-146 0 -261 63t-179 176t-64 257z" />
<glyph unicode="&#x442;" horiz-adv-x="977" d="M40 816v178h895v-178h-349v-816h-197v816h-349z" />
<glyph unicode="&#x443;" horiz-adv-x="968" d="M0 994h224l267 -561l256 561h222l-703 -1503h-220l338 722z" />
<glyph unicode="&#x444;" horiz-adv-x="1391" d="M76 507q0 104 43 197.5t114.5 158.5t166.5 103t197 38v505h197v-505q81 0 159 -24t143.5 -69t115 -105.5t77.5 -138t28 -160.5q0 -105 -43 -201t-114 -165.5t-167 -110.5t-199 -41v-500h-197v500q-82 0 -160.5 26t-143.5 74.5t-114 111.5t-76 142.5t-27 163.5zM276 504 q0 -67 22.5 -129t62.5 -110.5t101.5 -77t134.5 -28.5v675q-72 0 -134 -29t-102 -76.5t-62.5 -105.5t-22.5 -119zM794 159q73 0 134.5 28.5t101.5 77t62.5 110.5t22.5 129q0 61 -22.5 119t-62.5 105.5t-102 76.5t-134 29v-675z" />
<glyph unicode="&#x445;" d="M0 0l418 504l-418 490h247l295 -342l283 342h252l-410 -490l439 -504h-252l-312 356l-295 -356h-247z" />
<glyph unicode="&#x446;" horiz-adv-x="1256" d="M144 0v994h196v-817h487v817h197v-817h194v-401h-194v224h-880z" />
<glyph unicode="&#x447;" horiz-adv-x="1047" d="M64 792v202h197v-251q0 -69 12 -112t40 -66t64 -31t94 -8q67 0 115.5 10.5t78.5 29t50 46.5v382h197v-994h-197v441q-39 -47 -119 -69t-163 -22q-186 0 -277.5 113t-91.5 329z" />
<glyph unicode="&#x448;" horiz-adv-x="1614" d="M135 0v994h197v-817h367v817h196v-817h370v817h197v-994h-1327z" />
<glyph unicode="&#x449;" horiz-adv-x="1713" d="M135 0v994h197v-817h367v817h196v-817h370v817h197v-817h195v-401h-195v224h-1327z" />
<glyph unicode="&#x44a;" horiz-adv-x="1009" d="M-42 863v131h403v-335h228q71 0 130 -20t99 -52.5t68 -75t41 -88t13 -91.5q0 -40 -9.5 -79t-27.5 -76t-47.5 -69t-67 -56t-89 -38t-110.5 -14h-425v863h-206zM361 177h179q96 0 149.5 39t53.5 118q0 148 -203 148h-179v-305z" />
<glyph unicode="&#x44b;" horiz-adv-x="1391" d="M135 0v994h197v-335h227q71 0 130.5 -20t100 -52.5t68.5 -75t41 -88t13 -91.5q0 -48 -13 -94.5t-41 -89.5t-68.5 -76t-100 -52.5t-130.5 -19.5h-424zM332 177h177q37 0 68.5 6t57 18.5t43.5 30.5t27.5 44t9.5 58q0 148 -204 148h-179v-305zM1057 0v994h197v-994h-197z " />
<glyph unicode="&#x44c;" horiz-adv-x="983" d="M135 0v994h197v-335h227q71 0 130.5 -20t100 -52.5t68.5 -75t41 -88t13 -91.5q0 -48 -13 -94.5t-41 -89.5t-68.5 -76t-100 -52.5t-130.5 -19.5h-424zM332 177h175q96 0 152 39t56 118q0 51 -27 85t-72 48.5t-109 14.5h-175v-305z" />
<glyph unicode="&#x44d;" horiz-adv-x="968" d="M91 38v194q148 -66 263 -66q130 0 216 64.5t111 178.5h-411v177h409q-23 113 -101.5 179.5t-190.5 66.5q-68 0 -130.5 -21.5t-144.5 -76.5v210q80 35 144.5 52t144.5 17q225 0 357.5 -145t132.5 -391q0 -144 -64 -257t-179 -176t-261 -63q-77 0 -161.5 16.5t-134.5 40.5z " />
<glyph unicode="&#x44e;" horiz-adv-x="1618" d="M135 0v994h197v-403h164q15 90 60 168t112.5 134t156.5 88t188 32q154 0 277 -65t192 -180.5t69 -260.5q0 -156 -68 -275.5t-190 -185t-280 -65.5q-203 0 -344 119.5t-171 313.5h-166v-414h-197zM690 507q0 -158 89 -254t232 -96q156 0 247 93t91 254q0 48 -11.5 91.5 t-32.5 80t-51.5 66.5t-67.5 50.5t-82 32t-93 11.5q-139 0 -230 -93.5t-91 -235.5z" />
<glyph unicode="&#x44f;" horiz-adv-x="1054" d="M36 0l145 213q95 140 191 186q-106 38 -162 106.5t-56 178.5q0 69 34 128t90 98t127 61.5t146 22.5h369v-994h-196v363h-57q-83 0 -148 -35.5t-120 -122.5l-131 -205h-232zM356 673q0 -28 11 -54.5t33 -50t61 -37.5t90 -14h173v299h-173q-94 0 -144.5 -36t-50.5 -107z " />
<glyph unicode="&#x451;" horiz-adv-x="1058" d="M91 509q0 148 58.5 263t164 178t241.5 63q203 0 317 -138.5t114 -407.5h-699q24 -148 108 -223.5t226 -75.5q168 0 348 119v-190q-93 -62 -183 -89t-214 -27q-90 0 -168.5 28.5t-135 78t-97 116.5t-60.5 144.5t-20 160.5zM228 1287q0 43 30 72.5t74 29.5q42 0 71.5 -29.5 t29.5 -72.5t-29.5 -73t-71.5 -30q-43 0 -73.5 30t-30.5 73zM292 597h500q-5 114 -67 179.5t-166 65.5q-111 0 -179 -63t-88 -182zM639 1287q0 43 30.5 72.5t73.5 29.5t72.5 -29.5t29.5 -72.5q0 -28 -13.5 -52t-37 -37.5t-51.5 -13.5q-21 0 -40 8t-33 22t-22.5 33t-8.5 40z " />
<glyph unicode="&#x452;" horiz-adv-x="1116" d="M11 1194v178h135v137h196v-137h321v-178h-321v-331h6q56 71 134.5 110.5t161.5 39.5q73 0 134.5 -25.5t107 -74.5t71 -127t25.5 -178v-726q0 -86 -17.5 -153t-48.5 -111.5t-76.5 -73t-99 -41t-119.5 -12.5h-127v177h74q41 0 71.5 4.5t54 12.5t39 23t26 33t16.5 46t8 59 t2 74v695q0 109 -52.5 175t-141.5 66q-65 0 -122 -33t-127 -111v-712h-196v1194h-135z" />
<glyph unicode="&#x453;" horiz-adv-x="800" d="M144 0v994h633v-178h-437v-816h-196zM389 1115l142 312h214l-238 -312h-118z" />
<glyph unicode="&#x454;" horiz-adv-x="968" d="M91 477q0 246 132.5 391t358.5 145q55 0 105.5 -9t89.5 -23t92 -37v-210q-81 55 -143.5 76.5t-130.5 21.5q-74 0 -135 -30t-101 -85.5t-56 -130.5h409v-177h-411q25 -114 111.5 -178.5t216.5 -64.5q114 0 262 66v-194q-50 -24 -134.5 -40.5t-161.5 -16.5q-146 0 -261 63 t-179 176t-64 257z" />
<glyph unicode="&#x455;" horiz-adv-x="851" d="M91 71v212q62 -43 123 -73t111 -44t91 -14q63 4 104.5 33.5t41.5 80.5q0 24 -20 48.5t-53 46t-74.5 46t-85 48.5t-85.5 55.5t-74.5 64.5t-52.5 76.5t-20 91.5q0 126 88.5 198t238.5 72q139 0 293 -82v-194q-78 52 -153.5 77.5t-134.5 25.5q-60 0 -95.5 -25t-35.5 -65 q0 -33 54.5 -77.5t187.5 -121.5q125 -82 174.5 -143t49.5 -136q0 -130 -93 -210.5t-236 -80.5q-91 0 -169.5 20.5t-174.5 69.5z" />
<glyph unicode="&#x456;" horiz-adv-x="483" d="M126 1294q0 48 34.5 83t82.5 35t83 -35t35 -83t-35 -82.5t-83 -34.5t-82.5 34.5t-34.5 82.5zM144 0v994h196v-994h-196z" />
<glyph unicode="&#x457;" horiz-adv-x="483" d="M-19 1203q0 43 30 72.5t73 29.5t72.5 -29.5t29.5 -72.5t-29.5 -73.5t-72.5 -30.5t-73 30.5t-30 73.5zM144 0v994h196v-994h-196zM298 1203q0 14 4 27.5t10.5 24.5t16.5 20.5t21.5 16t25 10t27.5 3.5q43 0 72 -29.5t29 -72.5q0 -28 -13 -52t-36.5 -38t-51.5 -14 q-43 0 -74 30.5t-31 73.5z" />
<glyph unicode="&#x458;" horiz-adv-x="483" d="M-13 -363q68 28 108 83t40 134v1140h197v-1125q0 -104 -23 -176.5t-64 -118t-110 -83.5zM118 1294q0 48 34.5 83t82 35t82.5 -35t35 -83t-35 -82.5t-82.5 -34.5t-82 34.5t-34.5 82.5z" />
<glyph unicode="&#x459;" horiz-adv-x="1366" d="M6 -19l456 1013h74l174 -390h267q82 0 149.5 -24t111.5 -66t67.5 -97.5t23.5 -118.5q0 -67 -23 -124.5t-67.5 -100.5t-116 -67.5t-162.5 -24.5h-210l-263 654l-266 -654h-215zM768 427l125 -270h42q61 0 103.5 14.5t66 46.5t23.5 80q0 64 -50.5 96.5t-142.5 32.5h-167z " />
<glyph unicode="&#x45a;" horiz-adv-x="1604" d="M144 0v994h196v-392h487v392h197v-392h217q65 0 121.5 -17t96.5 -46t69 -67t43 -81.5t14 -89.5q0 -39 -11.5 -79t-38 -80.5t-65 -71.5t-98 -50.5t-131.5 -19.5h-414v424h-487v-424h-196zM1024 177h168q69 0 111.5 13t64 42.5t21.5 77.5q0 43 -21.5 68t-63.5 35.5 t-112 10.5h-168v-247z" />
<glyph unicode="&#x45b;" d="M0 1210v177h135v122h197v-122h442v-177h-442v-347h4q37 47 85.5 81t102.5 51.5t109 17.5q74 0 135 -25.5t106.5 -74.5t71 -127t25.5 -178v-608h-197v615q0 109 -52.5 175t-141.5 66q-65 0 -121.5 -33t-126.5 -111v-712h-197v1210h-135z" />
<glyph unicode="&#x45c;" horiz-adv-x="1051" d="M137 0v994h197v-412h82q53 0 100 41.5t99 132.5l137 238h215l-165 -273q-40 -68 -88 -125t-90 -89q63 -29 109.5 -77.5t104.5 -148.5l162 -281h-239l-135 270q-37 75 -93.5 116t-118.5 41h-80v-427h-197zM401 1066l141 312h214l-239 -312h-116z" />
<glyph unicode="&#x45e;" horiz-adv-x="968" d="M0 994h224l267 -561l256 561h222l-703 -1503h-220l338 722zM363 1121l148 325h221l-247 -325h-122z" />
<glyph unicode="&#x45f;" horiz-adv-x="1171" d="M144 0v994h196v-817h487v817h197v-994h-327v-221h-195v221h-358z" />
<glyph unicode="&#x490;" horiz-adv-x="1047" d="M166 0v1509h639v116h217v-311h-640v-1314h-216z" />
<glyph unicode="&#x491;" horiz-adv-x="800" d="M144 0v994h436v92h197v-270h-437v-816h-196z" />
<glyph unicode="&#x2000;" horiz-adv-x="1006" />
<glyph unicode="&#x2001;" horiz-adv-x="2013" />
<glyph unicode="&#x2002;" horiz-adv-x="1006" />
<glyph unicode="&#x2003;" horiz-adv-x="2013" />
<glyph unicode="&#x2004;" horiz-adv-x="671" />
<glyph unicode="&#x2005;" horiz-adv-x="503" />
<glyph unicode="&#x2006;" horiz-adv-x="335" />
<glyph unicode="&#x2007;" horiz-adv-x="335" />
<glyph unicode="&#x2008;" horiz-adv-x="251" />
<glyph unicode="&#x2009;" horiz-adv-x="402" />
<glyph unicode="&#x200a;" horiz-adv-x="111" />
<glyph unicode="&#x2010;" horiz-adv-x="713" d="M89 384v207h537v-207h-537z" />
<glyph unicode="&#x2011;" horiz-adv-x="713" d="M89 384v207h537v-207h-537z" />
<glyph unicode="&#x2012;" horiz-adv-x="713" d="M89 384v207h537v-207h-537z" />
<glyph unicode="&#x2013;" d="M-19 489v142h1144v-142h-1144z" />
<glyph unicode="&#x2014;" horiz-adv-x="2211" d="M-19 489v142h2250v-142h-2250z" />
<glyph unicode="&#x2018;" horiz-adv-x="483" d="M102 1190q0 125 65 213.5t187 124.5v-42q-33 -28 -52.5 -57t-27 -57t-9.5 -59t1 -63q35 -5 61.5 -22.5t40.5 -45.5t14 -63q0 -64 -37 -99.5t-96 -35.5q-66 0 -106.5 59.5t-40.5 146.5z" />
<glyph unicode="&#x2019;" horiz-adv-x="483" d="M102 1393q0 65 37 100t95 35q44 0 78.5 -28t52 -74.5t17.5 -102.5q0 -125 -65 -214t-186 -125v42q32 28 52 57t27.5 57t9.5 59t-1 64q-53 6 -85 41.5t-32 88.5z" />
<glyph unicode="&#x201a;" horiz-adv-x="483" d="M102 154q0 65 37 100t95 35q67 0 107.5 -59t40.5 -146q0 -124 -65 -213.5t-186 -125.5v42q32 28 52 57.5t27.5 57.5t9.5 59.5t-1 63.5q-53 6 -85 41t-32 88z" />
<glyph unicode="&#x201c;" horiz-adv-x="943" d="M91 1190q0 125 65 213.5t186 124.5v-42q-32 -28 -52 -57t-27 -57t-9 -59t1 -63q53 -7 85 -42.5t32 -88.5q0 -43 -18 -74t-47.5 -46t-67.5 -15q-67 0 -107.5 59.5t-40.5 146.5zM572 1190q0 125 65.5 213.5t187.5 124.5v-42q-33 -28 -53 -57t-27 -57t-9 -59t1 -63 q53 -7 85 -42.5t32 -88.5q0 -64 -37 -99.5t-96 -35.5q-66 0 -107.5 60t-41.5 146z" />
<glyph unicode="&#x201d;" horiz-adv-x="943" d="M91 1393q0 65 37 100t96 35q44 0 78 -28t52 -74.5t18 -102.5q0 -125 -65 -214t-187 -125v42q33 28 53 57t27 57t9 59t-1 64q-35 4 -61.5 21.5t-41 45.5t-14.5 63zM572 1393q0 65 37 100t96 35q67 0 108 -59t41 -146q0 -82 -28.5 -149.5t-85.5 -116.5t-138 -73v42 q32 28 52 57t27.5 57t9.5 59t-1 64q-53 6 -85.5 41.5t-32.5 88.5z" />
<glyph unicode="&#x201e;" horiz-adv-x="943" d="M112 154q0 44 18 74.5t47.5 45.5t67.5 15q44 0 78.5 -27.5t52.5 -74t18 -103.5q0 -124 -65.5 -213.5t-187.5 -125.5v42q33 28 53 57.5t27.5 57.5t9.5 59.5t-1 63.5q-54 6 -86 41t-32 88zM597 154q0 44 17.5 74.5t47.5 45.5t68 15q66 0 107 -59t41 -146q0 -124 -65 -213.5 t-187 -125.5v42q33 28 53 57.5t27.5 57.5t9.5 59.5t-1 63.5q-54 6 -86 41t-32 88z" />
<glyph unicode="&#x2026;" horiz-adv-x="2211" d="M234 112q0 55 39 94t94 39t94 -39t39 -94q0 -36 -18 -66t-48.5 -47.5t-66.5 -17.5q-55 0 -94 38t-39 93zM973 112q0 55 39 94t94 39t94 -39t39 -94t-39 -93t-94 -38t-94 38t-39 93zM1712 112q0 55 39 94t94 39t93.5 -39t38.5 -94q0 -36 -17.5 -66t-48 -47.5t-66.5 -17.5 q-56 0 -94.5 38t-38.5 93z" />
<glyph unicode="&#x202f;" horiz-adv-x="402" />
<glyph unicode="&#x2039;" horiz-adv-x="692" d="M80 498l325 498h194l-327 -498l327 -498h-194z" />
<glyph unicode="&#x203a;" horiz-adv-x="692" d="M93 0l327 498l-327 498h194l325 -498l-325 -498h-194z" />
<glyph unicode="&#x205f;" horiz-adv-x="503" />
<glyph unicode="&#x20ac;" d="M46 522l53 164h87q-2 19 -2 75q0 49 2 71h-140l53 164h102q17 125 55 221.5t99.5 167t150.5 107t204 36.5q102 0 185 -23.5t125 -54.5v-207q-43 40 -113 65.5t-166 25.5q-144 0 -225 -88t-100 -250h528l-53 -164h-495v-71v-75h446l-55 -164h-371q20 -172 102.5 -259.5 t222.5 -87.5q178 0 279 93v-213q-37 -29 -118 -50.5t-192 -21.5q-437 0 -507 539h-157z" />
<glyph unicode="&#x2122;" horiz-adv-x="2211" d="M243 1454v129h719v-129h-287v-751h-147v751h-285zM1062 703v880h217l218 -703h5l212 703h213v-880h-135v739h-5l-221 -739h-133l-232 751h-4v-751h-135z" />
<glyph unicode="&#xe000;" horiz-adv-x="994" d="M0 0v996h996v-996h-996z" />
</font>
</defs>
</svg>
